<svg width="75" height="39" viewBox="0 0 75 39" fill="none" xmlns="http://www.w3.org/2000/svg">
<path d="M28.3277 25.766C24.1512 25.5743 21.7999 23.0135 22.5581 19.4823C23.699 14.168 34.3301 14.3569 35.287 19.7084C35.9602 23.4736 33.0761 25.984 28.3277 25.766ZM29.6621 21.715C31.2243 21.3044 30.6408 19.6131 28.937 19.6131C27.0419 19.6131 26.5494 21.1184 28.2362 21.7553C28.479 21.847 29.2419 21.8254 29.6621 21.715ZM52.4578 25.6048C51.6377 25.4629 50.951 25.2651 50.2371 24.9652L49.7563 24.7633V22.9547V21.1462L50.0997 21.3911C51.2277 22.1954 54.6488 22.5872 55.2316 21.9788C55.488 21.7113 55.2636 21.6311 54.2586 21.6311C51.3913 21.6311 49.8874 20.9912 49.5766 19.6389C48.9752 17.0219 52.2142 15.2113 56.6052 15.71C57.5812 15.8208 57.8423 15.879 59.0283 16.2492L59.8296 16.4994V18.2547V20.0099L59.4493 19.8074C57.8711 18.967 54.564 18.7456 54.564 19.4803C54.564 19.6618 54.6455 19.6748 56.1666 19.7355C59.2504 19.8586 60.3095 20.5387 60.3132 22.398C60.318 24.86 56.6969 26.3382 52.4578 25.6048ZM42.6364 25.4025C42.0572 25.2397 41.5444 24.9753 41.1702 24.6467C40.7981 24.3199 40.782 24.3297 40.782 24.8811V25.359H38.3094H35.8369V19.7193V14.0796H38.3094H40.782V17.5079C40.782 21.683 40.7766 21.6687 42.3779 21.7951C43.7945 21.9069 44.6987 20.8368 43.8712 20.0277C43.248 19.4184 41.3628 19.5071 40.9701 20.1643C40.8708 20.3305 40.8675 20.3297 40.9128 20.1494C41.4578 17.9773 41.9534 16.0751 41.9818 16.0456C42.0018 16.0248 42.3406 15.9611 42.7346 15.904C46.7801 15.3175 49.8226 18.0617 49.1057 21.6503C48.5594 24.3844 45.4437 26.1916 42.6364 25.4025ZM7.90649 19.7193V14.0796H11.146H14.3856L15.3814 17.1567L16.3772 20.2338L16.4014 17.1567L16.4255 14.0796H19.2173H22.0091V19.7205V25.3614L18.655 25.3363L15.301 25.3112L14.4015 22.6347L13.5019 19.9583L13.4972 22.6586L13.4926 25.359H10.6995H7.9065L7.90649 19.7193ZM60.7453 20.723V16.0869H63.2636H65.782V17.5238C65.782 18.7766 65.7624 18.9684 65.6293 19.0217C65.5454 19.0554 64.4636 19.3089 63.2255 19.5851L60.9743 20.0874L63.3781 20.0945L65.782 20.1017V22.7303V25.359H63.2636H60.7453V20.723Z" fill="black"/>
</svg>
